<?xml version="1.0" encoding="utf-8"?>
<!-- Generator: Adobe Illustrator 20.1.0, SVG Export Plug-In . SVG Version: 6.00 Build 0)  -->
<svg version="1.1" id="Capa_1" xmlns="http://www.w3.org/2000/svg" xmlns:xlink="http://www.w3.org/1999/xlink" x="0px" y="0px"
	 viewBox="0 0 393.5 70.3" style="enable-background:new 0 0 393.5 70.3;" xml:space="preserve">
<g>
	<g>
		<g>
			<g>
				<path style="fill:#020203;" d="M13.8,42.4l11.3-1.7c2.6-0.4,3.5-1.7,3.5-3.3c0-3.3-2.5-6-7.8-6c-5.4,0-8.4,3.5-8.8,7.5l-11-2.3
					c0.7-7.2,7.4-15.2,19.8-15.2c14.6,0,20,8.2,20,17.5v22.7c0,2.4,0.3,5.7,0.6,7.3H29.9c-0.3-1.2-0.5-3.7-0.5-5.5
					c-2.3,3.7-6.7,6.8-13.6,6.8C6,70.2,0,63.6,0,56.4C0,48.1,6.1,43.5,13.8,42.4z M28.6,50.3v-2.1l-10.4,1.6
					c-3.2,0.5-5.7,2.2-5.7,5.8c0,2.7,2,5.3,6,5.3C23.7,61,28.6,58.4,28.6,50.3z"/>
			</g>
			<g>
				<path style="fill:#020203;" d="M52.3,68.9V22.8h11.9v5.6c2.5-4.5,8.4-6.9,13.5-6.9c6.3,0,11.3,2.7,13.7,7.7
					c3.7-5.6,8.5-7.7,14.6-7.7c8.5,0,16.7,5.1,16.7,17.5v29.9h-12.1V41.6c0-5-2.4-8.7-8.1-8.7c-5.3,0-8.5,4.1-8.5,9.1v27H81.6V41.6
					c0-5-2.5-8.7-8.1-8.7c-5.4,0-8.6,4-8.6,9.1v27H52.3z"/>
			</g>
			<g>
				<path style="fill:#020203;" d="M134.4,68.9V1.1h12.3v26.8c2.1-3.3,7.1-6.3,14-6.3c13.5,0,21.3,10.4,21.3,24.1
					c0,14-8.6,24.3-21.7,24.3c-6.4,0-11.2-2.8-13.7-6.7v5.6H134.4z M158,32.8c-6.3,0-11.5,4.6-11.5,13c0,8.3,5.2,13.1,11.5,13.1
					c6.4,0,11.4-4.7,11.4-13.1C169.4,37.4,164.3,32.8,158,32.8z"/>
			</g>
			<g>
				<path style="fill:#020203;" d="M196.9,0c4.3,0,7.7,3.5,7.7,7.8c0,4.1-3.4,7.6-7.7,7.6c-4.2,0-7.7-3.5-7.7-7.6
					C189.2,3.5,192.7,0,196.9,0z M190.7,68.9V22.8h12.5v46.1H190.7z"/>
			</g>
			<g>
				<path style="fill:#020203;" d="M256.8,55.7c-2.3,8-9.6,14.6-21,14.6c-12.6,0-23.8-9.1-23.8-24.6c0-14.7,10.9-24.3,22.7-24.3
					c14.2,0,22.8,9.1,22.8,23.9c0,1.8-0.2,3.7-0.2,3.8h-33c0.3,6.1,5.4,10.5,11.6,10.5c5.8,0,9-2.9,10.5-7L256.8,55.7z M245.2,40.6
					c-0.2-4.6-3.2-9.1-10.3-9.1c-6.5,0-10,4.9-10.3,9.1H245.2z"/>
			</g>
			<g>
				<path style="fill:#020203;" d="M278.9,68.9h-12.5V22.8h12.1v5.7c2.8-4.8,8.3-6.9,13.3-6.9c11.4,0,16.7,8.1,16.7,18.3v29H296V42
					c0-5.1-2.5-9.2-8.5-9.2c-5.4,0-8.6,4.2-8.6,9.5V68.9z"/>
			</g>
			<g>
				<path style="fill:#020203;" d="M335.5,22.8h9.3v11h-9.3v19.3c0,4,1.9,5.3,5.4,5.3c1.5,0,3.2-0.2,3.8-0.4v10.3
					c-1.1,0.5-3.4,1.1-7,1.1c-9,0-14.6-5.3-14.6-14.2V33.9h-8.3v-11h2.3c4.9,0,7.1-3.2,7.1-7.3V9.1h11.2V22.8z"/>
			</g>
			<g>
				<path style="fill:#020203;" d="M365.7,42.4l11.3-1.7c2.6-0.4,3.5-1.7,3.5-3.3c0-3.3-2.5-6-7.8-6c-5.4,0-8.4,3.5-8.8,7.5l-11-2.3
					c0.7-7.2,7.4-15.2,19.8-15.2c14.6,0,20,8.2,20,17.5v22.7c0,2.4,0.3,5.7,0.6,7.3h-11.4c-0.3-1.2-0.5-3.7-0.5-5.5
					c-2.3,3.7-6.7,6.8-13.6,6.8c-9.8,0-15.8-6.6-15.8-13.9C351.9,48.1,358,43.5,365.7,42.4z M380.4,50.3v-2.1l-10.4,1.6
					c-3.2,0.5-5.7,2.2-5.7,5.8c0,2.7,2,5.3,6,5.3C375.6,61,380.4,58.4,380.4,50.3z"/>
			</g>
		</g>
	</g>
</g>
</svg>
